# xmcd
#
# Track frame offsets:
#	150
#	19324
#	33361
#	48963
#	68009
#	87888
#	104076
#	120025
#	134156
#	150769
#	164247
#	180268
#	197480
#	214267
#	227046
#
# Disc length: 3223 seconds
#
# Revision: 0
# Processed by: cddbd v1.5.2PL0 Copyright (c) Steve Scherf et al.
# Submitted via: EasyCDDAExtractor 15.3.0.1
#
DISCID=c30c950f
DTITLE=Yolandita Monge - 15 Exitos
DYEAR=2002
DGENRE=Latin
TTITLE0=Quitame Ese Hombre Del Corazon
TTITLE1=Aceptame Como Soy
TTITLE2=Luz De Luna
TTITLE3=Cambiando La Rutina De Vivir
TTITLE4=Cuando Termina Un Amor
TTITLE5=La Distancia
TTITLE6=Como Lo Hago Yo
TTITLE7=Que Te Hice
TTITLE8=Si
TTITLE9=Siempre Tu
TTITLE10=Perdoname Otra Vez
TTITLE11=Te Agradezco
TTITLE12=Una Historia De Amor
TTITLE13=Soy Ante Todo Mujer
TTITLE14=Fui Solo Un Capricho
EXTD=
EXTT0=
EXTT1=
EXTT2=
EXTT3=
EXTT4=
EXTT5=
EXTT6=
EXTT7=
EXTT8=
EXTT9=
EXTT10=
EXTT11=
EXTT12=
EXTT13=
EXTT14=
PLAYORDER=
